<svg width="1440" height="572" viewBox="0 0 1440 572" fill="none" xmlns="http://www.w3.org/2000/svg">
<g opacity="0.1" clip-path="url(#clip0)">
<path d="M112.178 338.139C112.178 335.914 113.982 334.11 116.207 334.11C118.431 334.11 120.235 335.914 120.235 338.139C120.235 340.363 118.431 342.167 116.207 342.167C114.007 342.167 112.178 340.363 112.178 338.139Z" fill="url(#paint0_linear)"/>
<path d="M116.898 246.82H115.564V335.791H116.898V246.82Z" fill="url(#paint1_linear)"/>
<path d="M19.7472 154.34C19.7472 152.115 21.5513 150.311 23.7756 150.311C25.9999 150.311 27.804 152.115 27.804 154.34C27.804 156.564 25.9999 158.368 23.7756 158.368C21.5761 158.393 19.7472 156.589 19.7472 154.34Z" fill="url(#paint2_linear)"/>
<path d="M24.4676 63.0455H23.133V152.041H24.4676V63.0455Z" fill="url(#paint3_linear)"/>
<path d="M85.388 384.082C85.388 381.858 87.1921 380.054 89.4164 380.054C91.6407 380.054 93.4448 381.858 93.4448 384.082C93.4448 386.307 91.6407 388.111 89.4164 388.111C87.1921 388.111 85.388 386.307 85.388 384.082Z" fill="url(#paint4_linear)"/>
<path d="M90.1084 292.764H88.7738V381.735H90.1084V292.764Z" fill="url(#paint5_linear)"/>
<path d="M147.742 124.954C147.742 122.73 149.546 120.926 151.77 120.926C153.994 120.926 155.799 122.73 155.799 124.954C155.799 127.179 153.994 128.983 151.77 128.983C149.546 128.983 147.742 127.179 147.742 124.954Z" fill="url(#paint6_linear)"/>
<path d="M152.438 33.6603H151.103V122.631H152.438V33.6603Z" fill="url(#paint7_linear)"/>
<path d="M36.5529 121C36.5529 118.776 38.357 116.972 40.5813 116.972C42.8055 116.972 44.6097 118.776 44.6097 121C44.6097 123.224 42.8055 125.029 40.5813 125.029C38.357 125.029 36.5529 123.224 36.5529 121Z" fill="url(#paint8_linear)"/>
<path d="M41.2733 74.1916H39.9387V118.677H41.2733V74.1916Z" fill="url(#paint9_linear)"/>
<path d="M188.495 344.663C188.495 342.439 190.3 340.635 192.524 340.635C194.748 340.635 196.552 342.439 196.552 344.663C196.552 346.888 194.748 348.692 192.524 348.692C190.324 348.692 188.495 346.888 188.495 344.663Z" fill="url(#paint10_linear)"/>
<path d="M193.216 297.83H191.881V342.315H193.216V297.83Z" fill="url(#paint11_linear)"/>
<path d="M86.9697 47.3026C86.9697 45.0783 88.7739 43.2742 90.9981 43.2742C93.2224 43.2742 95.0265 45.0783 95.0265 47.3026C95.0265 49.5269 93.2224 51.331 90.9981 51.331C88.7986 51.3557 86.9697 49.5269 86.9697 47.3026Z" fill="url(#paint12_linear)"/>
<path d="M91.6901 0.493988H90.3555V44.9795H91.6901V0.493988Z" fill="url(#paint13_linear)"/>
<path d="M30.918 372.862C30.918 370.638 32.7222 368.834 34.9464 368.834C37.1707 368.834 38.9748 370.638 38.9748 372.862C38.9748 375.086 37.1707 376.89 34.9464 376.89C32.7222 376.89 30.918 375.086 30.918 372.862Z" fill="url(#paint14_linear)"/>
<path d="M35.6137 281.543H34.2791V370.539H35.6137V281.543Z" fill="url(#paint15_linear)"/>
<path d="M146.852 325.633C146.852 323.409 148.656 321.605 150.88 321.605C153.105 321.605 154.909 323.409 154.909 325.633C154.909 327.858 153.105 329.662 150.88 329.662C148.656 329.686 146.852 327.882 146.852 325.633Z" fill="url(#paint16_linear)"/>
<path d="M151.548 234.339H150.213V323.335H151.548V234.339Z" fill="url(#paint17_linear)"/>
<path d="M123.522 374.024C123.522 371.8 125.326 369.995 127.55 369.995C129.775 369.995 131.579 371.8 131.579 374.024C131.579 376.248 129.775 378.052 127.55 378.052C125.326 378.052 123.522 376.248 123.522 374.024Z" fill="url(#paint18_linear)"/>
<path d="M128.218 64.6767H126.883V371.701H128.218V64.6767Z" fill="url(#paint19_linear)"/>
<path d="M15.0021 464.008C15.0021 461.784 16.8062 459.98 19.0305 459.98C21.2547 459.98 23.0589 461.784 23.0589 464.008C23.0589 466.232 21.2547 468.036 19.0305 468.036C16.8062 468.061 15.0021 466.232 15.0021 464.008Z" fill="url(#paint20_linear)"/>
<path d="M19.7225 154.686H18.3879V461.71H19.7225V154.686Z" fill="url(#paint21_linear)"/>
<path d="M100.291 225.862C100.291 223.638 102.095 221.834 104.319 221.834C106.543 221.834 108.347 223.638 108.347 225.862C108.347 228.087 106.543 229.891 104.319 229.891C102.095 229.915 100.291 228.111 100.291 225.862Z" fill="url(#paint22_linear)"/>
<path d="M105.011 53.6788H103.676V223.539H105.011V53.6788Z" fill="url(#paint23_linear)"/>
<path d="M1243.77 380.722C1243.77 378.497 1245.58 376.693 1247.8 376.693C1250.03 376.693 1251.83 378.497 1251.83 380.722C1251.83 382.946 1250.03 384.75 1247.8 384.75C1245.58 384.775 1243.77 382.946 1243.77 380.722Z" fill="url(#paint24_linear)"/>
<path d="M1248.47 316.366H1247.14V378.423H1248.47V316.366Z" fill="url(#paint25_linear)"/>
<path d="M1139.85 290.614C1139.85 288.389 1141.66 286.585 1143.88 286.585C1146.1 286.585 1147.91 288.389 1147.91 290.614C1147.91 292.838 1146.1 294.642 1143.88 294.642C1141.66 294.642 1139.85 292.838 1139.85 290.614Z" fill="url(#paint26_linear)"/>
<path d="M1144.55 127.673H1143.21V288.291H1144.55V127.673Z" fill="url(#paint27_linear)"/>
<path d="M1431.18 315.155C1431.18 312.931 1432.99 311.127 1435.21 311.127C1437.43 311.127 1439.24 312.931 1439.24 315.155C1439.24 317.379 1437.43 319.183 1435.21 319.183C1432.99 319.183 1431.18 317.379 1431.18 315.155Z" fill="url(#paint28_linear)"/>
<path d="M1435.88 152.215H1434.54V312.832H1435.88V152.215Z" fill="url(#paint29_linear)"/>
<path d="M1093.91 151.745C1093.91 149.521 1095.71 147.717 1097.94 147.717C1100.16 147.717 1101.96 149.521 1101.96 151.745C1101.96 153.969 1100.16 155.773 1097.94 155.773C1095.74 155.798 1093.91 153.994 1093.91 151.745Z" fill="url(#paint30_linear)"/>
<path d="M1098.63 60.4508H1097.29V149.446H1098.63V60.4508Z" fill="url(#paint31_linear)"/>
<path d="M1218.64 221.884C1218.64 219.659 1220.44 217.855 1222.67 217.855C1224.89 217.855 1226.7 219.659 1226.7 221.884C1226.7 224.108 1224.89 225.912 1222.67 225.912C1220.44 225.937 1218.64 224.108 1218.64 221.884Z" fill="url(#paint32_linear)"/>
<path d="M1223.34 130.59H1222V219.585H1223.34V130.59Z" fill="url(#paint33_linear)"/>
<path d="M1381.46 191.807C1381.46 189.582 1383.26 187.778 1385.49 187.778C1387.71 187.778 1389.51 189.582 1389.51 191.807C1389.51 194.031 1387.71 195.835 1385.49 195.835C1383.26 195.86 1381.46 194.055 1381.46 191.807Z" fill="url(#paint34_linear)"/>
<path d="M1386.18 100.512H1384.84V189.483H1386.18V100.512Z" fill="url(#paint35_linear)"/>
<path d="M1346.17 228.903C1346.17 226.678 1347.97 224.874 1350.19 224.874C1352.42 224.874 1354.22 226.678 1354.22 228.903C1354.22 231.127 1352.42 232.931 1350.19 232.931C1347.97 232.931 1346.17 231.127 1346.17 228.903Z" fill="url(#paint36_linear)"/>
<path d="M1350.89 137.608H1349.55V226.604H1350.89V137.608Z" fill="url(#paint37_linear)"/>
<path d="M1206.8 296.273C1206.8 294.049 1208.61 292.245 1210.83 292.245C1213.06 292.245 1214.86 294.049 1214.86 296.273C1214.86 298.498 1213.06 300.302 1210.83 300.302C1208.61 300.326 1206.8 298.498 1206.8 296.273Z" fill="url(#paint38_linear)"/>
<path d="M1211.52 127.055H1210.19V293.95H1211.52V127.055Z" fill="url(#paint39_linear)"/>
<path d="M1230.26 265.677C1230.26 263.453 1232.06 261.649 1234.28 261.649C1236.51 261.649 1238.31 263.453 1238.31 265.677C1238.31 267.901 1236.51 269.706 1234.28 269.706C1232.06 269.706 1230.26 267.901 1230.26 265.677Z" fill="url(#paint40_linear)"/>
<path d="M1234.98 130.12H1233.64V263.354H1234.98V130.12Z" fill="url(#paint41_linear)"/>
<path d="M1172.77 442.655C1172.77 440.431 1174.58 438.627 1176.8 438.627C1179.02 438.627 1180.83 440.431 1180.83 442.655C1180.83 444.879 1179.02 446.684 1176.8 446.684C1174.6 446.684 1172.77 444.879 1172.77 442.655Z" fill="url(#paint42_linear)"/>
<path d="M1177.49 133.308H1176.16V440.332H1177.49V133.308Z" fill="url(#paint43_linear)"/>
<path d="M1290.29 309.347C1290.29 307.123 1292.09 305.319 1294.32 305.319C1296.54 305.319 1298.34 307.123 1298.34 309.347C1298.34 311.571 1296.54 313.375 1294.32 313.375C1292.09 313.375 1290.29 311.571 1290.29 309.347Z" fill="url(#paint44_linear)"/>
<path d="M1295.01 0H1293.67V307.024H1295.01V0Z" fill="url(#paint45_linear)"/>
<path d="M1351.45 326.523C1351.45 324.299 1353.26 322.495 1355.48 322.495C1357.71 322.495 1359.51 324.299 1359.51 326.523C1359.51 328.748 1357.71 330.552 1355.48 330.552C1353.26 330.552 1351.45 328.748 1351.45 326.523Z" fill="url(#paint46_linear)"/>
<path d="M1356.15 17.1764H1354.82V324.2H1356.15V17.1764Z" fill="url(#paint47_linear)"/>
<path d="M1104.61 510.248C1104.61 508.024 1106.41 506.22 1108.64 506.22C1110.86 506.22 1112.67 508.024 1112.67 510.248C1112.67 512.473 1110.86 514.277 1108.64 514.277C1106.44 514.277 1104.61 512.473 1104.61 510.248Z" fill="url(#paint48_linear)"/>
<path d="M1109.33 200.901H1108V507.925H1109.33V200.901Z" fill="url(#paint49_linear)"/>
<path d="M1428.02 257.695H1426.68V564.718H1428.02V257.695Z" fill="url(#paint50_linear)"/>
<path d="M1362.43 388.63C1362.43 386.406 1364.23 384.602 1366.46 384.602C1368.68 384.602 1370.48 386.406 1370.48 388.63C1370.48 390.854 1368.68 392.659 1366.46 392.659C1364.23 392.659 1362.43 390.854 1362.43 388.63Z" fill="url(#paint51_linear)"/>
<path d="M1367.15 79.2831H1365.81V386.307H1367.15V79.2831Z" fill="url(#paint52_linear)"/>
<path d="M1051.89 428.197C1051.89 425.973 1053.7 424.169 1055.92 424.169C1058.15 424.169 1059.95 425.973 1059.95 428.197C1059.95 430.422 1058.15 432.226 1055.92 432.226C1053.7 432.251 1051.89 430.446 1051.89 428.197Z" fill="url(#paint53_linear)"/>
<path d="M1056.59 256.014H1055.26V425.874H1056.59V256.014Z" fill="url(#paint54_linear)"/>
<path d="M1121.34 243.089C1121.34 240.864 1123.14 239.06 1125.37 239.06C1127.59 239.06 1129.4 240.864 1129.4 243.089C1129.4 245.313 1127.59 247.117 1125.37 247.117C1123.14 247.142 1121.34 245.338 1121.34 243.089Z" fill="url(#paint55_linear)"/>
<path d="M1126.06 117.763H1124.73V240.79H1126.06V117.763Z" fill="url(#paint56_linear)"/>
<path d="M1340.98 460.202C1340.98 457.978 1342.78 456.174 1345 456.174C1347.23 456.174 1349.03 457.978 1349.03 460.202C1349.03 462.427 1347.23 464.231 1345 464.231C1342.78 464.231 1340.98 462.427 1340.98 460.202Z" fill="url(#paint57_linear)"/>
<path d="M1345.7 287.994H1344.36V457.855H1345.7V287.994Z" fill="url(#paint58_linear)"/>
</g>
<defs>
<linearGradient id="paint0_linear" x1="116.224" y1="315.457" x2="116.224" y2="245.437" gradientUnits="userSpaceOnUse">
<stop stop-color="#A4FFFF"/>
<stop offset="1" stop-color="#A4FFFF" stop-opacity="0"/>
</linearGradient>
<linearGradient id="paint1_linear" x1="116.226" y1="315.456" x2="116.226" y2="245.438" gradientUnits="userSpaceOnUse">
<stop stop-color="#A4FFFF"/>
<stop offset="1" stop-color="#A4FFFF" stop-opacity="0"/>
</linearGradient>
<linearGradient id="paint2_linear" x1="23.7946" y1="131.676" x2="23.7946" y2="61.6535" gradientUnits="userSpaceOnUse">
<stop stop-color="#A4FFFF"/>
<stop offset="1" stop-color="#A4FFFF" stop-opacity="0"/>
</linearGradient>
<linearGradient id="paint3_linear" x1="23.7946" y1="131.676" x2="23.7946" y2="61.6568" gradientUnits="userSpaceOnUse">
<stop stop-color="#A4FFFF"/>
<stop offset="1" stop-color="#A4FFFF" stop-opacity="0"/>
</linearGradient>
<linearGradient id="paint4_linear" x1="89.4307" y1="361.411" x2="89.4307" y2="291.41" gradientUnits="userSpaceOnUse">
<stop stop-color="#A4FFFF"/>
<stop offset="1" stop-color="#A4FFFF" stop-opacity="0"/>
</linearGradient>
<linearGradient id="paint5_linear" x1="89.4319" y1="361.404" x2="89.4319" y2="291.386" gradientUnits="userSpaceOnUse">
<stop stop-color="#A4FFFF"/>
<stop offset="1" stop-color="#A4FFFF" stop-opacity="0"/>
</linearGradient>
<linearGradient id="paint6_linear" x1="151.771" y1="102.282" x2="151.771" y2="32.2625" gradientUnits="userSpaceOnUse">
<stop stop-color="#A4FFFF"/>
<stop offset="1" stop-color="#A4FFFF" stop-opacity="0"/>
</linearGradient>
<linearGradient id="paint7_linear" x1="151.77" y1="102.281" x2="151.77" y2="32.263" gradientUnits="userSpaceOnUse">
<stop stop-color="#A4FFFF"/>
<stop offset="1" stop-color="#A4FFFF" stop-opacity="0"/>
</linearGradient>
<linearGradient id="paint8_linear" x1="40.5926" y1="98.3314" x2="40.5926" y2="28.3118" gradientUnits="userSpaceOnUse">
<stop stop-color="#A4FFFF"/>
<stop offset="1" stop-color="#A4FFFF" stop-opacity="0"/>
</linearGradient>
<linearGradient id="paint9_linear" x1="40.5939" y1="108.507" x2="40.5939" y2="73.4979" gradientUnits="userSpaceOnUse">
<stop stop-color="#A4FFFF"/>
<stop offset="1" stop-color="#A4FFFF" stop-opacity="0"/>
</linearGradient>
<linearGradient id="paint10_linear" x1="192.542" y1="321.981" x2="192.542" y2="251.961" gradientUnits="userSpaceOnUse">
<stop stop-color="#A4FFFF"/>
<stop offset="1" stop-color="#A4FFFF" stop-opacity="0"/>
</linearGradient>
<linearGradient id="paint11_linear" x1="192.542" y1="332.157" x2="192.542" y2="297.148" gradientUnits="userSpaceOnUse">
<stop stop-color="#A4FFFF"/>
<stop offset="1" stop-color="#A4FFFF" stop-opacity="0"/>
</linearGradient>
<linearGradient id="paint12_linear" x1="91.0177" y1="24.6353" x2="91.0177" y2="-45.3846" gradientUnits="userSpaceOnUse">
<stop stop-color="#A4FFFF"/>
<stop offset="1" stop-color="#A4FFFF" stop-opacity="0"/>
</linearGradient>
<linearGradient id="paint13_linear" x1="91.0198" y1="34.8103" x2="91.0198" y2="-0.195785" gradientUnits="userSpaceOnUse">
<stop stop-color="#A4FFFF"/>
<stop offset="1" stop-color="#A4FFFF" stop-opacity="0"/>
</linearGradient>
<linearGradient id="paint14_linear" x1="34.9571" y1="350.188" x2="34.9571" y2="280.168" gradientUnits="userSpaceOnUse">
<stop stop-color="#A4FFFF"/>
<stop offset="1" stop-color="#A4FFFF" stop-opacity="0"/>
</linearGradient>
<linearGradient id="paint15_linear" x1="34.9558" y1="350.188" x2="34.9558" y2="280.168" gradientUnits="userSpaceOnUse">
<stop stop-color="#A4FFFF"/>
<stop offset="1" stop-color="#A4FFFF" stop-opacity="0"/>
</linearGradient>
<linearGradient id="paint16_linear" x1="150.887" y1="302.964" x2="150.887" y2="232.923" gradientUnits="userSpaceOnUse">
<stop stop-color="#A4FFFF"/>
<stop offset="1" stop-color="#A4FFFF" stop-opacity="0"/>
</linearGradient>
<linearGradient id="paint17_linear" x1="150.888" y1="302.97" x2="150.888" y2="232.952" gradientUnits="userSpaceOnUse">
<stop stop-color="#A4FFFF"/>
<stop offset="1" stop-color="#A4FFFF" stop-opacity="0"/>
</linearGradient>
<linearGradient id="paint18_linear" x1="127.548" y1="334.534" x2="127.548" y2="209.835" gradientUnits="userSpaceOnUse">
<stop stop-color="#A4FFFF"/>
<stop offset="1" stop-color="#A4FFFF" stop-opacity="0"/>
</linearGradient>
<linearGradient id="paint19_linear" x1="127.55" y1="303.331" x2="127.55" y2="73.9432" gradientUnits="userSpaceOnUse">
<stop stop-color="#A4FFFF"/>
<stop offset="1" stop-color="#A4FFFF" stop-opacity="0"/>
</linearGradient>
<linearGradient id="paint20_linear" x1="19.0448" y1="424.523" x2="19.0448" y2="299.825" gradientUnits="userSpaceOnUse">
<stop stop-color="#A4FFFF"/>
<stop offset="1" stop-color="#A4FFFF" stop-opacity="0"/>
</linearGradient>
<linearGradient id="paint21_linear" x1="19.0461" y1="393.319" x2="19.0461" y2="163.932" gradientUnits="userSpaceOnUse">
<stop stop-color="#A4FFFF"/>
<stop offset="1" stop-color="#A4FFFF" stop-opacity="0"/>
</linearGradient>
<linearGradient id="paint22_linear" x1="104.33" y1="186.369" x2="104.33" y2="61.632" gradientUnits="userSpaceOnUse">
<stop stop-color="#A4FFFF"/>
<stop offset="1" stop-color="#A4FFFF" stop-opacity="0"/>
</linearGradient>
<linearGradient id="paint23_linear" x1="104.33" y1="185.724" x2="104.33" y2="58.8085" gradientUnits="userSpaceOnUse">
<stop stop-color="#A4FFFF"/>
<stop offset="1" stop-color="#A4FFFF" stop-opacity="0"/>
</linearGradient>
<linearGradient id="paint24_linear" x1="1247.8" y1="358.066" x2="1247.8" y2="288.068" gradientUnits="userSpaceOnUse">
<stop stop-color="#A4FFFF"/>
<stop offset="1" stop-color="#A4FFFF" stop-opacity="0"/>
</linearGradient>
<linearGradient id="paint25_linear" x1="1247.8" y1="364.217" x2="1247.8" y2="315.388" gradientUnits="userSpaceOnUse">
<stop stop-color="#A4FFFF"/>
<stop offset="1" stop-color="#A4FFFF" stop-opacity="0"/>
</linearGradient>
<linearGradient id="paint26_linear" x1="1143.88" y1="267.943" x2="1143.88" y2="197.923" gradientUnits="userSpaceOnUse">
<stop stop-color="#A4FFFF"/>
<stop offset="1" stop-color="#A4FFFF" stop-opacity="0"/>
</linearGradient>
<linearGradient id="paint27_linear" x1="1143.88" y1="251.561" x2="1143.88" y2="125.179" gradientUnits="userSpaceOnUse">
<stop stop-color="#A4FFFF"/>
<stop offset="1" stop-color="#A4FFFF" stop-opacity="0"/>
</linearGradient>
<linearGradient id="paint28_linear" x1="1435.21" y1="292.466" x2="1435.21" y2="222.425" gradientUnits="userSpaceOnUse">
<stop stop-color="#A4FFFF"/>
<stop offset="1" stop-color="#A4FFFF" stop-opacity="0"/>
</linearGradient>
<linearGradient id="paint29_linear" x1="1435.21" y1="276.091" x2="1435.21" y2="149.705" gradientUnits="userSpaceOnUse">
<stop stop-color="#A4FFFF"/>
<stop offset="1" stop-color="#A4FFFF" stop-opacity="0"/>
</linearGradient>
<linearGradient id="paint30_linear" x1="1097.96" y1="129.083" x2="1097.96" y2="59.063" gradientUnits="userSpaceOnUse">
<stop stop-color="#A4FFFF"/>
<stop offset="1" stop-color="#A4FFFF" stop-opacity="0"/>
</linearGradient>
<linearGradient id="paint31_linear" x1="1097.96" y1="129.083" x2="1097.96" y2="59.0636" gradientUnits="userSpaceOnUse">
<stop stop-color="#A4FFFF"/>
<stop offset="1" stop-color="#A4FFFF" stop-opacity="0"/>
</linearGradient>
<linearGradient id="paint32_linear" x1="1222.67" y1="199.207" x2="1222.67" y2="129.166" gradientUnits="userSpaceOnUse">
<stop stop-color="#A4FFFF"/>
<stop offset="1" stop-color="#A4FFFF" stop-opacity="0"/>
</linearGradient>
<linearGradient id="paint33_linear" x1="1222.67" y1="199.213" x2="1222.67" y2="129.194" gradientUnits="userSpaceOnUse">
<stop stop-color="#A4FFFF"/>
<stop offset="1" stop-color="#A4FFFF" stop-opacity="0"/>
</linearGradient>
<linearGradient id="paint34_linear" x1="1385.5" y1="169.146" x2="1385.5" y2="99.1259" gradientUnits="userSpaceOnUse">
<stop stop-color="#A4FFFF"/>
<stop offset="1" stop-color="#A4FFFF" stop-opacity="0"/>
</linearGradient>
<linearGradient id="paint35_linear" x1="1385.5" y1="169.144" x2="1385.5" y2="99.1262" gradientUnits="userSpaceOnUse">
<stop stop-color="#A4FFFF"/>
<stop offset="1" stop-color="#A4FFFF" stop-opacity="0"/>
</linearGradient>
<linearGradient id="paint36_linear" x1="1350.21" y1="206.234" x2="1350.21" y2="136.214" gradientUnits="userSpaceOnUse">
<stop stop-color="#A4FFFF"/>
<stop offset="1" stop-color="#A4FFFF" stop-opacity="0"/>
</linearGradient>
<linearGradient id="paint37_linear" x1="1350.21" y1="206.234" x2="1350.21" y2="136.215" gradientUnits="userSpaceOnUse">
<stop stop-color="#A4FFFF"/>
<stop offset="1" stop-color="#A4FFFF" stop-opacity="0"/>
</linearGradient>
<linearGradient id="paint38_linear" x1="1210.85" y1="256.788" x2="1210.85" y2="132.089" gradientUnits="userSpaceOnUse">
<stop stop-color="#A4FFFF"/>
<stop offset="1" stop-color="#A4FFFF" stop-opacity="0"/>
</linearGradient>
<linearGradient id="paint39_linear" x1="1210.85" y1="256.79" x2="1210.85" y2="132.092" gradientUnits="userSpaceOnUse">
<stop stop-color="#A4FFFF"/>
<stop offset="1" stop-color="#A4FFFF" stop-opacity="0"/>
</linearGradient>
<linearGradient id="paint40_linear" x1="1234.3" y1="226.18" x2="1234.3" y2="101.481" gradientUnits="userSpaceOnUse">
<stop stop-color="#A4FFFF"/>
<stop offset="1" stop-color="#A4FFFF" stop-opacity="0"/>
</linearGradient>
<linearGradient id="paint41_linear" x1="1234.3" y1="233.675" x2="1234.3" y2="134.127" gradientUnits="userSpaceOnUse">
<stop stop-color="#A4FFFF"/>
<stop offset="1" stop-color="#A4FFFF" stop-opacity="0"/>
</linearGradient>
<linearGradient id="paint42_linear" x1="1176.82" y1="403.166" x2="1176.82" y2="278.467" gradientUnits="userSpaceOnUse">
<stop stop-color="#A4FFFF"/>
<stop offset="1" stop-color="#A4FFFF" stop-opacity="0"/>
</linearGradient>
<linearGradient id="paint43_linear" x1="1176.82" y1="371.961" x2="1176.82" y2="142.573" gradientUnits="userSpaceOnUse">
<stop stop-color="#A4FFFF"/>
<stop offset="1" stop-color="#A4FFFF" stop-opacity="0"/>
</linearGradient>
<linearGradient id="paint44_linear" x1="1294.33" y1="269.841" x2="1294.33" y2="145.104" gradientUnits="userSpaceOnUse">
<stop stop-color="#A4FFFF"/>
<stop offset="1" stop-color="#A4FFFF" stop-opacity="0"/>
</linearGradient>
<linearGradient id="paint45_linear" x1="1294.33" y1="238.647" x2="1294.33" y2="9.25916" gradientUnits="userSpaceOnUse">
<stop stop-color="#A4FFFF"/>
<stop offset="1" stop-color="#A4FFFF" stop-opacity="0"/>
</linearGradient>
<linearGradient id="paint46_linear" x1="1355.49" y1="287.022" x2="1355.49" y2="162.288" gradientUnits="userSpaceOnUse">
<stop stop-color="#A4FFFF"/>
<stop offset="1" stop-color="#A4FFFF" stop-opacity="0"/>
</linearGradient>
<linearGradient id="paint47_linear" x1="1355.49" y1="255.831" x2="1355.49" y2="26.441" gradientUnits="userSpaceOnUse">
<stop stop-color="#A4FFFF"/>
<stop offset="1" stop-color="#A4FFFF" stop-opacity="0"/>
</linearGradient>
<linearGradient id="paint48_linear" x1="1108.66" y1="470.758" x2="1108.66" y2="346.06" gradientUnits="userSpaceOnUse">
<stop stop-color="#A4FFFF"/>
<stop offset="1" stop-color="#A4FFFF" stop-opacity="0"/>
</linearGradient>
<linearGradient id="paint49_linear" x1="1108.66" y1="439.554" x2="1108.66" y2="210.168" gradientUnits="userSpaceOnUse">
<stop stop-color="#A4FFFF"/>
<stop offset="1" stop-color="#A4FFFF" stop-opacity="0"/>
</linearGradient>
<linearGradient id="paint50_linear" x1="1427.35" y1="496.345" x2="1427.35" y2="266.956" gradientUnits="userSpaceOnUse">
<stop stop-color="#A4FFFF"/>
<stop offset="1" stop-color="#A4FFFF" stop-opacity="0"/>
</linearGradient>
<linearGradient id="paint51_linear" x1="1366.47" y1="349.146" x2="1366.47" y2="224.485" gradientUnits="userSpaceOnUse">
<stop stop-color="#A4FFFF"/>
<stop offset="1" stop-color="#A4FFFF" stop-opacity="0"/>
</linearGradient>
<linearGradient id="paint52_linear" x1="1366.47" y1="317.93" x2="1366.47" y2="88.5425" gradientUnits="userSpaceOnUse">
<stop stop-color="#A4FFFF"/>
<stop offset="1" stop-color="#A4FFFF" stop-opacity="0"/>
</linearGradient>
<linearGradient id="paint53_linear" x1="1055.93" y1="388.719" x2="1055.93" y2="264.02" gradientUnits="userSpaceOnUse">
<stop stop-color="#A4FFFF"/>
<stop offset="1" stop-color="#A4FFFF" stop-opacity="0"/>
</linearGradient>
<linearGradient id="paint54_linear" x1="1055.93" y1="388.058" x2="1055.93" y2="261.146" gradientUnits="userSpaceOnUse">
<stop stop-color="#A4FFFF"/>
<stop offset="1" stop-color="#A4FFFF" stop-opacity="0"/>
</linearGradient>
<linearGradient id="paint55_linear" x1="1125.39" y1="203.61" x2="1125.39" y2="78.9117" gradientUnits="userSpaceOnUse">
<stop stop-color="#A4FFFF"/>
<stop offset="1" stop-color="#A4FFFF" stop-opacity="0"/>
</linearGradient>
<linearGradient id="paint56_linear" x1="1125.39" y1="213.385" x2="1125.39" y2="121.474" gradientUnits="userSpaceOnUse">
<stop stop-color="#A4FFFF"/>
<stop offset="1" stop-color="#A4FFFF" stop-opacity="0"/>
</linearGradient>
<linearGradient id="paint57_linear" x1="1345.02" y1="420.716" x2="1345.02" y2="296.055" gradientUnits="userSpaceOnUse">
<stop stop-color="#A4FFFF"/>
<stop offset="1" stop-color="#A4FFFF" stop-opacity="0"/>
</linearGradient>
<linearGradient id="paint58_linear" x1="1345.02" y1="420.044" x2="1345.02" y2="293.129" gradientUnits="userSpaceOnUse">
<stop stop-color="#A4FFFF"/>
<stop offset="1" stop-color="#A4FFFF" stop-opacity="0"/>
</linearGradient>
<clipPath id="clip0">
<rect width="1537" height="572" fill="white" transform="translate(-97)"/>
</clipPath>
</defs>
</svg>
